<?xml version="1.0" encoding="UTF-8" standalone="no"?>
<!-- Created with Inkscape (http://www.inkscape.org/) -->

<svg
   width="153.36818mm"
   height="170.90836mm"
   viewBox="0 0 153.36818 170.90836"
   version="1.1"
   id="svg5"
   xml:space="preserve"
   sodipodi:docname="ivy leaf.svg"
   inkscape:version="1.2.2 (732a01da63, 2022-12-09)"
   inkscape:export-filename="..\..\Desktop\ivy_icon_foreground_outline.svg"
   inkscape:export-xdpi="96"
   inkscape:export-ydpi="96"
   xmlns:inkscape="http://www.inkscape.org/namespaces/inkscape"
   xmlns:sodipodi="http://sodipodi.sourceforge.net/DTD/sodipodi-0.dtd"
   xmlns:xlink="http://www.w3.org/1999/xlink"
   xmlns="http://www.w3.org/2000/svg"
   xmlns:svg="http://www.w3.org/2000/svg"><sodipodi:namedview
     id="namedview7"
     pagecolor="#505050"
     bordercolor="#eeeeee"
     borderopacity="1"
     inkscape:showpageshadow="0"
     inkscape:pageopacity="0"
     inkscape:pagecheckerboard="0"
     inkscape:deskcolor="#505050"
     inkscape:document-units="mm"
     showgrid="false"
     inkscape:zoom="0.76880612"
     inkscape:cx="-5.2028722"
     inkscape:cy="443.54486"
     inkscape:window-width="1920"
     inkscape:window-height="1017"
     inkscape:window-x="-8"
     inkscape:window-y="-8"
     inkscape:window-maximized="1"
     inkscape:current-layer="g3428" /><defs
     id="defs2"><linearGradient
       inkscape:collect="always"
       id="linearGradient1046"><stop
         style="stop-color:#008015;stop-opacity:1;"
         offset="0"
         id="stop1042" /><stop
         style="stop-color:#00ff3e;stop-opacity:1;"
         offset="1"
         id="stop1044" /></linearGradient><linearGradient
       inkscape:collect="always"
       id="linearGradient1040"><stop
         style="stop-color:#008017;stop-opacity:1;"
         offset="0"
         id="stop1036" /><stop
         style="stop-color:#4cff74;stop-opacity:1;"
         offset="1"
         id="stop1038" /></linearGradient><linearGradient
       inkscape:collect="always"
       id="linearGradient1034"><stop
         style="stop-color:#009919;stop-opacity:1;"
         offset="0"
         id="stop1030" /><stop
         style="stop-color:#000000;stop-opacity:1;"
         offset="1"
         id="stop1032" /></linearGradient><linearGradient
       inkscape:collect="always"
       id="linearGradient4482"><stop
         style="stop-color:#00f7ff;stop-opacity:1;"
         offset="0"
         id="stop4478" /><stop
         style="stop-color:#00b8b8;stop-opacity:1;"
         offset="1"
         id="stop4480" /></linearGradient><linearGradient
       id="linearGradient1768"
       inkscape:swatch="solid"><stop
         style="stop-color:#000000;stop-opacity:1;"
         offset="0"
         id="stop1766" /></linearGradient><linearGradient
       inkscape:collect="always"
       xlink:href="#linearGradient4482"
       id="linearGradient4484"
       x1="100"
       y1="0"
       x2="100"
       y2="200"
       gradientUnits="userSpaceOnUse" /><linearGradient
       inkscape:collect="always"
       xlink:href="#linearGradient1046"
       id="linearGradient5272"
       gradientUnits="userSpaceOnUse"
       x1="111.82035"
       y1="200"
       x2="111.82035"
       y2="0" /><linearGradient
       inkscape:collect="always"
       xlink:href="#linearGradient1040"
       id="linearGradient5274"
       gradientUnits="userSpaceOnUse"
       x1="111.82035"
       y1="200"
       x2="111.82035"
       y2="0" /><linearGradient
       inkscape:collect="always"
       xlink:href="#linearGradient1034"
       id="linearGradient1953"
       gradientUnits="userSpaceOnUse"
       x1="111.82035"
       y1="200"
       x2="111.82035"
       y2="0" /></defs><g
     inkscape:groupmode="layer"
     id="g2680"
     inkscape:label="Layer 3 copy"
     style="display:inline"
     transform="translate(-23.316128,-14.507245)"><g
       inkscape:groupmode="layer"
       id="g5352"
       inkscape:label="Layer 2 copy"
       style="display:none"><rect
         style="fill:url(#linearGradient4484);fill-opacity:1;stroke:none;stroke-width:0.76312;stroke-dasharray:none;stroke-opacity:1"
         id="rect5350"
         width="200"
         height="200"
         x="3.5527137e-15"
         y="0"
         sodipodi:insensitive="true" /></g><g
       id="g3428"
       transform="matrix(0.89534058,0,0,0.89534058,3.1180688,13.267411)"
       style="display:inline;fill:url(#linearGradient1953);fill-opacity:1"><path
         id="path2676"
         style="display:inline;fill:url(#linearGradient5272);fill-opacity:1;stroke:none;stroke-width:1.41845;stroke-dasharray:none;stroke-opacity:1"
         d="m 106.58117,116.35891 c 0,0 -18.229931,83.49777 49.11575,74.53128 -31.63768,-4.69492 -50.16319,-24.39613 -44.74642,-74.66937 z"
         sodipodi:nodetypes="cccc" /><path
         style="color:#000000;display:inline;fill:#000000;fill-opacity:1;stroke:none;stroke-opacity:1;-inkscape-stroke:none"
         d="m 111.74219,115.48633 -5.73633,0.18164 -0.11719,0.53906 c 0,0 -4.60009,20.96697 -0.70117,40.91602 1.94946,9.97452 6.03585,19.73653 13.96484,26.44531 7.92899,6.70878 19.66368,10.28546 36.63868,8.02539 l 0.01,-1.4043 c -15.69622,-2.32926 -28.00436,-8.3353 -35.7832,-19.9375 -7.77884,-11.6022 -11.05943,-28.91391 -8.36133,-53.95507 z m -1.5625,1.46875 c -2.5568,24.78545 0.71042,42.23081 8.66015,54.08789 7.14386,10.65511 18.18137,16.54428 31.70313,19.42578 -13.81897,0.89114 -23.71406,-2.26227 -30.47461,-7.98242 -7.59386,-6.42522 -11.57702,-15.85568 -13.48828,-25.63477 -3.67703,-18.81371 0.2829,-38.30953 0.5957,-39.80078 z"
         id="path1839"
         inkscape:label="stem tstroke" /><path
         id="path2674"
         style="display:inline;fill:url(#linearGradient5274);fill-opacity:1;stroke:none;stroke-width:1.41845;stroke-dasharray:none;stroke-opacity:1"
         d="M 108.2909,2.0932662 C 101.28647,2.0872862 94.857416,11.517516 66.564126,57.572644 57.22268,65.56551 26.270587,65.151711 23.603105,69.915068 c -2.66748,4.763357 10.793891,4.953944 24.09777,53.201192 5.586038,20.25807 41.425596,26.32656 60.479025,-6.82639 19.05342,33.15295 54.94677,27.08446 60.53281,6.82639 C 182.01659,74.869012 195.47796,74.678425 192.81048,69.915068 190.143,65.151711 159.19147,65.56551 149.85003,57.572644 121.55675,11.517516 115.29534,2.0992556 108.2909,2.0932662 Z"
         sodipodi:nodetypes="zcsscsscz" /><path
         style="color:#000000;display:inline;fill:#000000;fill-opacity:1;stroke:none;stroke-opacity:1;-inkscape-stroke:none"
         d="m 108.29102,1.3847656 c -1.91034,-0.00163 -3.81948,0.6708249 -5.93555,2.3417969 -2.11607,1.670972 -4.485904,4.3290034 -7.513673,8.4101565 -6.041409,8.143261 -14.711369,22.000379 -28.800781,44.933593 -4.397562,3.714262 -14.380449,5.700153 -23.572266,7.183594 -4.612941,0.74447 -9.028924,1.388995 -12.494141,2.154297 -1.732608,0.382651 -3.226775,0.794189 -4.412109,1.28125 -1.185334,0.487061 -2.100773,1.026492 -2.578125,1.878906 -0.396053,0.707238 -0.52575,1.472934 -0.345703,2.19336 0.180047,0.720425 0.598816,1.369682 1.167969,2.11914 1.138306,1.498916 2.952859,3.43476 5.27539,6.736328 4.645063,6.603138 11.299845,18.622764 17.935547,42.687503 2.891515,10.48623 13.577451,17.23351 25.878906,17.13672 12.052655,-0.0948 25.676893,-6.82309 35.283206,-22.85547 9.60698,16.03289 23.2449,22.76063 35.31054,22.85547 12.31462,0.0968 23.01458,-6.64993 25.90625,-17.13672 6.63571,-24.064739 13.28854,-36.084365 17.9336,-42.687503 2.32253,-3.301568 4.13708,-5.237412 5.27539,-6.736328 0.56915,-0.749458 0.98987,-1.398715 1.16992,-2.11914 0.18005,-0.720426 0.0504,-1.486122 -0.3457,-2.19336 -0.47735,-0.852409 -1.39281,-1.391844 -2.57813,-1.878906 -1.18532,-0.487061 -2.67952,-0.898599 -4.41211,-1.28125 -3.46516,-0.765302 -7.88127,-1.409827 -12.49414,-2.154297 -9.19167,-1.483441 -19.1747,-3.469328 -23.57226,-7.183594 C 136.28418,34.137672 127.65714,20.285738 121.6582,12.144531 118.65172,8.0644031 116.30347,5.4045067 114.20313,3.7324219 112.10278,2.060337 110.20097,1.3863988 108.29102,1.3847656 Z m 0,1.4179688 c 1.59226,0.00136 3.09951,0.5062726 5.02734,2.0410156 1.92783,1.534743 4.22619,4.1085565 7.19727,8.140625 5.94214,8.064137 14.58477,21.932953 28.73046,44.958984 l 0.0586,0.0957 0.084,0.07227 c 4.96932,4.251922 15.0798,6.049754 24.33203,7.542969 4.62612,0.746607 9.03172,1.392092 12.41211,2.138672 1.6902,0.37329 3.12529,0.773765 4.17969,1.207031 1.0544,0.433266 1.68939,0.92329 1.87891,1.261719 0.27081,0.4836 0.30454,0.766052 0.20703,1.15625 -0.0975,0.390198 -0.39627,0.91335 -0.92188,1.605468 -1.05121,1.384237 -2.93428,3.404947 -5.30664,6.777344 -4.74471,6.744794 -11.47246,18.944491 -18.14062,43.126948 -2.69437,9.77126 -12.73544,16.18839 -24.52735,16.09571 -11.7919,-0.0927 -25.28551,-6.69446 -34.70703,-23.08789 l -0.61523,-1.06836 -0.61524,1.06836 c -9.42166,16.39368 -22.901518,22.99521 -34.679684,23.08789 -11.778167,0.0927 -21.805483,-6.32389 -24.5,-16.09571 C 41.716602,98.745272 34.9869,86.545575 30.242187,79.800781 27.869831,76.428384 25.988716,74.407674 24.9375,73.023437 c -0.525608,-0.692118 -0.824358,-1.21527 -0.921875,-1.605468 -0.09752,-0.390198 -0.06378,-0.67265 0.207031,-1.15625 0.189518,-0.338424 0.824488,-0.828452 1.878906,-1.261719 1.054419,-0.433267 2.489466,-0.833741 4.179688,-1.207031 3.380444,-0.74658 7.78592,-1.392065 12.412109,-2.138672 9.252378,-1.493215 19.362708,-3.291043 24.332032,-7.542969 l 0.08398,-0.07227 0.05859,-0.0957 c 14.14539,-23.025522 22.829093,-36.895857 28.8125,-44.960937 2.991703,-4.0325402 5.310369,-6.6078445 7.253909,-8.1425783 1.94353,-1.5347337 3.46476,-2.0384684 5.05664,-2.0371093 z"
         id="path1841"
         inkscape:label="stroke" /></g></g></svg>
