<?xml version="1.0" encoding="UTF-8" standalone="no"?>
<!-- Created with Inkscape (http://www.inkscape.org/) -->

<svg
   width="150mm"
   height="150mm"
   viewBox="0 0 150 150"
   version="1.1"
   id="svg5"
   sodipodi:docname="VI Weather Icon.svg"
   inkscape:version="1.2.2 (732a01da63, 2022-12-09)"
   inkscape:export-filename="VI_Weather_Icon_V1.svg"
   inkscape:export-xdpi="96"
   inkscape:export-ydpi="96"
   xmlns:inkscape="http://www.inkscape.org/namespaces/inkscape"
   xmlns:sodipodi="http://sodipodi.sourceforge.net/DTD/sodipodi-0.dtd"
   xmlns="http://www.w3.org/2000/svg"
   xmlns:svg="http://www.w3.org/2000/svg">
  <sodipodi:namedview
     id="namedview7"
     pagecolor="#505050"
     bordercolor="#eeeeee"
     borderopacity="1"
     inkscape:showpageshadow="0"
     inkscape:pageopacity="0"
     inkscape:pagecheckerboard="0"
     inkscape:deskcolor="#505050"
     inkscape:document-units="mm"
     showgrid="false"
     inkscape:zoom="1.087256"
     inkscape:cx="-10.117213"
     inkscape:cy="366.05914"
     inkscape:window-width="1920"
     inkscape:window-height="1017"
     inkscape:window-x="-8"
     inkscape:window-y="-8"
     inkscape:window-maximized="1"
     inkscape:current-layer="layer1" />
  <defs
     id="defs2" />
  <rect
     style="display:none;fill:#51bcd8;fill-opacity:1;stroke:none;stroke-width:1.53201"
     id="rect2852"
     width="150"
     height="150"
     x="0"
     y="0"
     ry="0" />
  <g
     inkscape:label="Layer 1"
     inkscape:groupmode="layer"
     id="layer1"
     style="display:inline">
    <g
       id="g1122"
       style="display:inline;fill:#ffffff;fill-opacity:1;stroke:none"
       transform="translate(7.8710728,37.87774)">
      <rect
         style="fill:#ffffff;fill-opacity:1;stroke:none;stroke-width:1"
         id="rect1070"
         width="81.219002"
         height="34.242756"
         x="26.519426"
         y="28.264317"
         ry="17.121378" />
      <ellipse
         style="fill:#ffffff;fill-opacity:1;stroke:none;stroke-width:1.19804"
         id="path1074"
         cx="54.360447"
         cy="28.264317"
         rx="18.39846"
         ry="16.526869" />
      <ellipse
         style="fill:#ffffff;fill-opacity:1;stroke:none;stroke-width:1.02745"
         id="path1074-5"
         cx="81.848328"
         cy="33.9552"
         rx="14.205676"
         ry="15.743161" />
    </g>
    <text
       xml:space="preserve"
       style="font-size:28.7081px;font-family:'Linux Libertine Display G';-inkscape-font-specification:'Linux Libertine Display G, Normal';display:none;fill:#000000;fill-opacity:1;stroke:none;stroke-width:0.651016"
       x="59.297447"
       y="91.011627"
       id="text1178"><tspan
         sodipodi:role="line"
         id="tspan1176"
         style="fill:#000000;fill-opacity:1;stroke-width:0.651016"
         x="59.297447"
         y="91.011627">VI</tspan></text>
    <g
       aria-label="VI"
       id="text1178-7"
       style="font-size:28.7081px;font-family:'Linux Libertine Display G';-inkscape-font-specification:'Linux Libertine Display G, Normal';display:inline;stroke-width:0.651016">
      <path
         d="m 72.796422,73.012995 q -0.126159,-0.126159 -0.126159,-0.322406 0,-0.210264 0.126159,-0.336423 0.714899,0.01402 1.766221,0.08411 1.051322,0.05607 1.359709,0.05607 0.308388,0 1.107393,-0.05607 0.813022,-0.07009 1.41578,-0.08411 0.126159,0.126159 0.126159,0.336423 0,0.196247 -0.126159,0.322406 -0.672846,0.0841 -1.191498,0.364458 -0.518652,0.266335 -0.883111,0.756952 -0.364458,0.476599 -0.574722,0.88311 -0.196247,0.378476 -0.462582,1.037305 l -5.929456,14.634402 q -0.280353,0.672846 -0.686864,0.672846 -0.406511,0 -0.658828,-0.672846 L 62.381325,75.998749 q -0.350441,-0.897128 -0.574723,-1.345692 -0.210264,-0.462582 -0.546687,-0.855075 -0.322405,-0.406511 -0.728917,-0.560705 -0.392493,-0.168212 -1.009269,-0.224282 -0.126158,-0.126159 -0.140176,-0.322406 -0.01402,-0.210264 0.112141,-0.336423 0.630793,0.01402 1.65408,0.08411 1.023287,0.05607 1.626045,0.05607 0.58874,0 1.724168,-0.05607 1.135427,-0.07009 1.752203,-0.08411 0.126159,0.126159 0.126159,0.336423 0,0.196247 -0.126159,0.322406 -1.41578,0.140176 -1.71015,0.770969 -0.280353,0.616776 0.280352,1.89238 l 4.569746,11.6907 0.252318,0.364459 0.140176,-0.364459 4.527693,-11.508471 q 0.252318,-0.644811 0.322406,-1.079357 0.07009,-0.462582 -0.05607,-0.855076 -0.112141,-0.406511 -0.560705,-0.630793 -0.448564,-0.224282 -1.219533,-0.280352 z"
         id="path977" />
      <path
         d="m 84.823546,87.885696 q 0.02804,0.925164 0.112141,1.415781 0.09812,0.476599 0.420529,0.756952 0.322405,0.266334 0.714899,0.336423 0.392493,0.05607 1.247568,0.09812 0.126159,0.126159 0.126159,0.336423 0,0.196247 -0.126159,0.322405 -0.616775,-0.01402 -1.766221,-0.08411 -1.149445,-0.05607 -1.934432,-0.05607 -0.799005,0 -1.976485,0.05607 -1.163463,0.07009 -1.752204,0.08411 -0.126158,-0.126158 -0.126158,-0.322405 0,-0.210264 0.126158,-0.336423 0.855075,-0.04205 1.247569,-0.09812 0.392494,-0.07009 0.714899,-0.336423 0.322405,-0.280353 0.406511,-0.756952 0.09812,-0.490617 0.126159,-1.415781 0.08411,-3.574494 0.08411,-6.08365 0,-2.607278 -0.08411,-6.181773 -0.02804,-0.925163 -0.126159,-1.401763 -0.08411,-0.490616 -0.406511,-0.756951 -0.322405,-0.280353 -0.714899,-0.336423 -0.392494,-0.07009 -1.247569,-0.112141 -0.126158,-0.126159 -0.126158,-0.322406 0,-0.210264 0.126158,-0.336423 0.616776,0.01402 1.766221,0.08411 1.149446,0.05607 1.934433,0.05607 0.799004,0 1.962467,-0.05607 1.177481,-0.07009 1.766221,-0.08411 0.126159,0.126159 0.126159,0.336423 0,0.196247 -0.126159,0.322406 -0.574722,0.02804 -0.88311,0.05607 -0.308388,0.02804 -0.630793,0.126159 -0.322406,0.09812 -0.462582,0.252317 -0.140176,0.154194 -0.280353,0.462582 -0.126158,0.29437 -0.182229,0.700881 -0.04205,0.378476 -0.05607,1.009269 -0.08411,3.238072 -0.08411,6.209809 0,2.509155 0.08411,6.055614 z"
         id="path979" />
    </g>
  </g>
</svg>
